<?xml version="1.0" standalone="no"?>
<!DOCTYPE svg PUBLIC "-//W3C//DTD SVG 20010904//EN"
 "http://www.w3.org/TR/2001/REC-SVG-20010904/DTD/svg10.dtd">
<svg version="1.0" xmlns="http://www.w3.org/2000/svg"
 width="5120.000000pt" height="5120.000000pt" viewBox="0 0 5120.000000 5120.000000"
 preserveAspectRatio="xMidYMid meet">

<g transform="translate(0.000000,5120.000000) scale(0.100000,-0.100000)"
fill="#000000" stroke="none">
<path d="M13475 41430 c-599 -5 -1173 -11 -1275 -14 -102 -3 -275 -8 -385 -12
-110 -3 -203 -8 -207 -10 -5 -3 -54 -7 -111 -10 -56 -2 -129 -7 -162 -10 -33
-3 -143 -5 -245 -5 -188 1 -293 -10 -342 -36 -16 -7 -28 -11 -28 -8 0 15 -123
-60 -188 -115 -196 -164 -284 -252 -364 -366 -43 -62 -41 -60 -116 -137 -51
-53 -53 -56 -39 -79 25 -39 37 -121 42 -296 9 -287 18 -18613 9 -18772 -3 -47
-7 -130 -9 -185 -2 -55 -7 -140 -11 -190 -4 -49 -8 -130 -10 -180 -1 -49 -7
-157 -13 -240 -6 -82 -13 -195 -16 -250 -3 -55 -7 -129 -11 -165 -9 -109 -35
-525 -43 -705 -8 -159 -18 -276 -41 -470 -5 -44 -12 -138 -16 -210 -3 -71 -8
-143 -10 -160 -2 -16 -11 -109 -19 -205 -19 -227 -23 -256 -50 -365 -17 -67
-19 -74 -28 -95 -9 -21 -79 -239 -107 -335 -13 -44 -29 -87 -35 -95 -19 -25
-72 -189 -90 -280 -9 -47 -27 -112 -40 -145 -12 -33 -30 -87 -39 -120 -17 -57
-30 -90 -62 -145 -7 -14 -14 -33 -14 -42 0 -10 -4 -18 -8 -18 -5 0 -20 -21
-33 -47 -13 -27 -36 -64 -51 -84 -15 -20 -28 -43 -28 -49 0 -23 -125 -167
-141 -163 -4 2 -16 -11 -26 -27 -9 -17 -23 -30 -30 -30 -16 0 -77 -59 -86 -82
-3 -10 -13 -18 -20 -18 -15 0 -34 -17 -103 -91 -22 -24 -76 -82 -120 -129 -43
-47 -108 -121 -144 -165 -35 -44 -114 -136 -175 -205 -60 -69 -135 -155 -165
-190 -30 -35 -65 -73 -76 -84 -12 -12 -34 -39 -50 -61 -16 -22 -40 -51 -53
-65 -66 -70 -264 -335 -307 -411 -22 -39 -70 -82 -156 -140 -48 -32 -91 -59
-95 -59 -5 0 -24 -8 -43 -19 -19 -10 -75 -35 -125 -56 -49 -21 -97 -44 -106
-52 -8 -7 -22 -13 -30 -13 -23 0 -110 -36 -103 -42 3 -4 -25 -20 -63 -38 -37
-17 -75 -35 -83 -41 -38 -24 -182 -71 -255 -84 -22 -4 -44 -10 -50 -15 -5 -4
-23 -10 -40 -13 -170 -34 -242 -53 -300 -77 -11 -5 -65 -23 -120 -41 -128 -40
-106 -39 -1470 -42 -785 -1 -1101 1 -1185 10 -63 7 -196 15 -295 18 -99 4
-183 9 -187 11 -5 3 -95 10 -200 15 -106 6 -195 13 -198 17 -3 5 -43 13 -89
20 -47 6 -87 15 -90 20 -3 4 -49 16 -101 26 -52 11 -103 26 -113 34 -9 9 -25
16 -35 17 -9 1 -47 16 -84 34 -37 17 -74 31 -81 31 -16 0 -75 28 -81 39 -3 4
-22 8 -42 9 -20 1 -41 8 -48 15 -6 8 -50 27 -98 42 -48 16 -85 32 -82 37 3 4
-13 11 -36 14 -22 4 -40 10 -40 15 0 5 -13 9 -30 9 -16 0 -30 5 -30 10 0 6
-13 10 -29 10 -17 0 -33 5 -36 10 -3 6 -15 10 -25 10 -20 0 -43 15 -87 57 -13
13 -32 27 -43 33 -20 11 -59 67 -125 180 -94 161 -111 153 -197 -90 -12 -36
-33 -85 -45 -110 -13 -25 -23 -48 -23 -52 0 -4 -11 -19 -25 -34 -16 -17 -23
-34 -19 -46 3 -12 0 -18 -10 -18 -8 0 -22 -18 -32 -40 -10 -21 -22 -36 -27
-33 -6 4 -7 1 -2 -6 4 -8 -1 -21 -14 -32 -12 -11 -21 -24 -21 -30 0 -5 -8 -19
-19 -30 -11 -12 -17 -29 -13 -41 3 -11 -1 -24 -8 -28 -8 -5 -14 -19 -15 -31
-1 -13 -7 -25 -13 -27 -7 -2 -12 -12 -12 -21 0 -10 -3 -20 -6 -24 -8 -7 -64
-167 -62 -176 1 -3 -1 -13 -5 -21 -17 -46 -48 -154 -52 -186 -2 -20 -8 -41
-13 -48 -5 -6 -26 -67 -48 -136 -21 -69 -41 -127 -44 -130 -8 -6 -30 -109 -37
-164 -3 -23 -6 -255 -8 -516 -2 -261 -9 -684 -15 -940 -6 -256 -15 -611 -19
-790 -5 -179 -5 -455 0 -615 9 -338 19 -404 89 -560 12 -27 26 -59 30 -70 4
-11 22 -54 40 -95 35 -81 43 -100 85 -202 15 -38 31 -68 34 -68 3 0 12 -15 20
-32 7 -18 31 -67 52 -109 21 -42 36 -79 34 -83 -3 -3 -2 -4 2 -1 6 5 33 -40
33 -55 0 -12 67 -123 88 -146 10 -11 23 -27 28 -37 16 -28 146 -157 158 -157
7 0 19 -13 28 -28 9 -15 29 -34 45 -42 15 -8 44 -27 64 -42 20 -15 39 -28 42
-28 3 0 30 -24 61 -52 113 -108 137 -128 151 -128 9 0 18 -7 21 -15 7 -18 77
-66 136 -94 24 -11 54 -26 68 -34 14 -8 36 -19 50 -25 14 -6 50 -21 80 -35
117 -52 128 -57 141 -57 7 0 32 -11 56 -26 24 -14 47 -23 52 -20 4 3 30 -9 57
-26 56 -36 110 -60 140 -63 12 -2 37 -10 55 -18 98 -43 162 -67 177 -67 10 0
26 -6 37 -13 11 -7 38 -18 60 -25 99 -28 160 -44 192 -48 19 -2 85 -16 146
-30 61 -14 141 -27 177 -30 36 -3 97 -12 135 -20 39 -8 88 -17 110 -20 22 -2
60 -9 85 -14 63 -13 172 -30 255 -40 39 -5 138 -18 220 -29 239 -32 377 -40
745 -42 810 -4 1399 8 1523 32 29 5 141 14 250 19 109 6 217 14 240 20 23 5
76 10 117 10 41 0 107 5 145 11 39 6 106 12 150 14 74 3 122 8 367 34 48 5 96
14 107 20 11 6 36 11 57 11 20 0 57 7 83 15 72 24 333 85 362 85 40 0 89 12
84 20 -2 4 28 12 68 19 122 21 187 35 187 41 0 3 19 6 42 7 23 2 44 7 47 11 6
8 150 43 261 63 30 6 57 14 60 19 3 5 28 14 55 21 28 6 62 18 77 25 15 8 39
14 54 14 15 0 34 8 43 19 9 10 27 21 41 26 14 4 55 24 92 46 36 21 71 39 76
39 21 0 157 73 203 110 28 22 88 59 135 82 46 23 86 50 89 59 3 9 19 22 35 29
16 7 35 19 42 27 7 8 21 19 33 24 11 5 40 21 64 34 24 14 48 25 52 25 5 0 59
24 121 54 192 91 222 104 271 120 27 9 61 23 76 30 52 27 221 83 656 217 72
22 171 53 220 70 50 16 122 38 160 48 79 21 85 23 285 99 80 31 159 63 176 73
17 9 56 22 87 29 32 6 57 16 57 21 0 10 48 25 68 21 6 -2 12 2 12 8 0 5 9 10
21 10 27 0 171 57 184 73 6 7 33 23 60 36 28 14 55 30 60 36 6 7 26 21 45 31
110 59 232 183 424 429 119 154 170 211 325 368 159 162 276 267 341 307 30
18 74 49 97 67 23 18 44 33 47 33 3 0 43 22 88 48 46 27 117 68 158 91 163 91
231 143 328 248 48 52 113 122 145 156 32 34 69 87 84 117 14 30 34 67 44 82
11 14 19 33 19 42 0 9 4 16 9 16 4 0 25 44 46 98 21 53 48 119 61 146 13 28
24 56 24 63 0 8 17 44 37 81 20 37 44 80 52 97 9 16 21 34 27 40 6 5 21 39 34
73 13 35 34 80 48 100 14 21 49 88 79 149 30 62 59 113 65 113 5 0 8 7 4 15
-3 8 -1 15 4 15 5 0 12 10 16 22 9 30 96 158 107 158 4 0 6 4 2 9 -3 6 3 15
13 20 11 6 27 27 37 46 9 20 19 34 22 31 5 -5 34 33 42 56 2 3 20 24 41 46 21
22 73 94 116 159 44 65 84 123 90 128 5 6 21 27 35 47 13 21 27 38 32 38 4 0
7 11 7 25 0 17 8 29 23 36 13 6 28 23 35 37 22 53 59 111 66 105 4 -4 4 0 0
10 -4 12 -1 17 10 17 9 0 19 12 22 27 4 15 15 35 24 45 19 21 16 16 99 189 34
70 61 134 61 143 0 9 6 19 14 22 8 3 18 24 21 47 4 23 10 44 14 47 4 3 12 21
18 40 17 54 57 145 66 148 4 2 7 15 7 28 0 13 4 24 9 24 5 0 11 19 15 41 4 23
10 39 13 35 14 -14 123 287 123 340 0 14 11 65 25 114 14 50 32 141 40 202 43
319 45 332 116 623 132 546 150 634 174 840 14 116 34 278 45 360 11 83 20
173 20 200 0 28 7 75 16 105 8 30 20 95 25 143 5 49 15 98 21 110 13 23 16 36
22 102 3 22 11 80 20 129 9 48 13 92 10 98 -3 5 1 15 10 21 9 7 16 30 18 60 1
27 5 50 10 53 4 3 8 21 8 40 0 20 5 45 12 57 6 12 13 42 15 67 3 40 11 73 43
185 5 17 11 50 15 75 17 121 83 359 122 442 13 27 23 56 23 66 0 26 122 376
153 438 14 28 27 59 29 70 1 10 6 22 11 25 18 13 27 142 25 349 -1 91 -1 179
0 195 0 17 3 2451 6 5410 3 2959 8 5812 12 6340 9 1325 11 4834 2 5090 -8 261
-12 740 -10 1530 1 336 1 889 0 1230 -1 341 2 664 7 717 l8 97 -45 43 c-24 24
-71 58 -104 77 -32 18 -84 50 -114 71 -30 20 -65 40 -77 44 -13 4 -23 12 -23
17 0 5 -7 9 -16 9 -17 0 -110 47 -131 67 -7 6 -26 14 -43 18 -16 4 -30 10 -30
15 0 5 -10 12 -22 16 -12 3 -28 13 -36 20 -7 8 -24 14 -36 14 -13 0 -29 6 -35
14 -7 8 -34 22 -62 32 -27 10 -49 22 -49 27 0 4 -4 6 -9 3 -8 -5 -68 13 -126
39 -16 8 -73 26 -125 41 -52 14 -100 31 -107 36 -7 5 -16 7 -22 4 -5 -4 -22
-1 -38 5 -15 6 -37 15 -48 20 -36 14 -133 39 -154 39 -12 0 -21 4 -21 9 0 5
-19 11 -42 15 -24 3 -70 10 -103 15 -33 6 -91 13 -130 16 -38 3 -106 10 -150
15 -125 15 -815 18 -2000 10z"/>
<path d="M27917 41373 c-4 -3 -199 -8 -434 -11 -236 -2 -468 -5 -518 -7 -78
-2 -82 -1 -30 5 38 5 8 6 -80 3 -77 -2 -529 -4 -1005 -4 -873 -1 -1057 -7
-1046 -35 4 -11 2 -11 -14 -2 -16 10 -25 9 -49 -5 -16 -9 -38 -17 -49 -17 -12
0 -23 -4 -26 -9 -4 -5 -29 -12 -56 -16 -28 -4 -50 -11 -50 -16 0 -5 -12 -9
-28 -9 -16 0 -32 -8 -40 -20 -7 -11 -19 -20 -28 -20 -9 0 -14 -6 -12 -12 5
-14 38 -23 143 -42 116 -20 57 -28 -365 -46 -245 -11 -336 -24 -349 -49 -12
-21 -31 -321 -25 -391 5 -67 5 -69 -1 -150 -3 -36 -7 -113 -9 -172 -3 -59 -7
-116 -11 -127 -3 -10 -1 -37 4 -60 7 -31 6 -43 -5 -52 -17 -14 -18 -33 -2 -58
6 -10 8 -27 4 -37 -9 -21 -11 -992 -4 -1589 3 -209 2 -450 -1 -535 -4 -85 -3
-160 1 -166 10 -14 12 -164 9 -1114 -7 -2932 -8 -5922 -1 -5905 5 15 8 7 11
-28 2 -27 2 -53 -2 -58 -8 -14 -4 -927 4 -935 4 -4 7 -12 7 -18 0 -6 -5 -4
-10 4 -5 8 -10 11 -10 5 -5 -343 -5 -875 0 -875 10 0 10 -659 0 -665 -5 -3 -9
-128 -9 -278 0 -149 -4 -291 -7 -315 -5 -33 -3 -46 9 -55 14 -11 15 -40 7
-262 -6 -137 -13 -289 -16 -337 -6 -72 -4 -88 7 -88 12 0 14 -34 12 -196 -1
-139 -5 -199 -13 -204 -9 -6 -9 -13 0 -30 8 -15 10 -43 7 -76 -3 -29 -2 -54 3
-56 5 -2 4 -24 0 -50 -5 -27 -8 -155 -5 -285 7 -463 8 -690 3 -699 -3 -5 -6
-551 -7 -1213 -1 -662 -3 -1207 -5 -1210 -2 -3 -5 -247 -5 -541 -1 -294 -4
-549 -7 -566 -3 -17 -1 -64 5 -106 12 -86 16 -1120 5 -1240 -5 -60 -4 -82 7
-94 10 -13 11 -18 2 -21 -16 -6 -18 -1813 -3 -1813 6 0 10 -34 10 -80 0 -54
-4 -80 -12 -80 -8 0 -9 -355 -3 -1437 4 -791 7 -1458 6 -1483 -1 -25 -4 -242
-7 -482 -3 -285 -9 -438 -15 -438 -6 0 -10 -33 -9 -82 1 -46 1 -274 1 -508 0
-234 4 -454 9 -490 13 -87 13 -200 0 -200 -7 0 -8 -103 -4 -317 4 -175 6 -356
6 -403 -3 -330 -8 -496 -15 -501 -12 -9 -14 -460 -5 -874 5 -198 8 -488 8
-645 0 -157 5 -377 12 -490 12 -191 14 -281 9 -454 -1 -45 2 -72 10 -77 17
-10 17 -548 -1 -559 -6 -4 -14 -25 -17 -47 -5 -40 -5 -40 43 -62 27 -12 57
-27 66 -32 10 -5 25 -9 33 -9 8 0 15 -5 15 -10 0 -6 3 -9 8 -9 4 1 9 0 12 -1
22 -8 199 -38 245 -41 22 -2 45 -5 50 -9 6 -3 37 -16 70 -29 33 -13 67 -29 75
-36 8 -7 24 -15 35 -18 11 -3 53 -19 94 -36 41 -17 76 -29 79 -26 3 2 17 -2
31 -10 35 -19 142 -45 218 -52 34 -3 60 -10 57 -14 -4 -8 127 -11 561 -12 55
0 136 1 180 3 44 2 144 3 223 2 79 -1 175 3 213 8 39 6 75 8 80 4 5 -3 230 -6
500 -8 316 -2 493 -6 497 -13 9 -13 771 -16 930 -2 68 5 183 11 257 11 74 1
131 4 126 8 -5 3 66 6 157 7 92 1 201 4 242 8 41 3 134 7 205 9 72 3 180 10
240 17 61 6 164 12 230 14 124 2 156 10 175 45 6 11 19 20 29 20 10 0 27 17
41 42 25 47 112 139 133 142 7 1 26 12 41 24 16 12 33 22 38 22 5 0 6 5 3 11
-4 6 2 13 14 16 27 7 34 34 21 82 -6 23 -13 96 -16 163 -3 68 -7 1529 -9 3248
-2 1719 -4 3293 -4 3499 0 206 2 377 4 382 6 8 6 1100 0 1634 -5 499 -5 1400
0 1465 9 107 6 256 -6 359 -8 67 -9 106 -3 108 11 4 11 18 -6 1063 -12 718
-12 883 0 913 4 12 14 43 20 69 7 26 16 45 21 42 5 -3 9 1 9 8 0 8 9 30 19 51
10 20 14 37 9 37 -6 0 -6 6 1 14 7 8 14 27 17 43 3 15 9 32 15 38 5 5 9 17 9
27 0 10 5 18 11 18 6 0 9 6 6 13 -2 6 2 19 10 29 8 9 16 22 17 30 6 30 26 68
36 68 5 0 10 4 10 10 0 13 81 120 91 120 5 0 9 5 9 11 0 5 -6 7 -12 3 -8 -4
-10 -3 -5 2 5 5 12 9 15 9 15 0 72 59 63 65 -6 3 3 14 20 25 16 11 31 27 34
35 3 8 19 24 35 35 16 11 56 38 89 60 33 22 60 45 61 50 0 6 18 18 40 28 22
10 38 22 36 26 -5 8 70 45 94 46 8 0 34 7 58 14 29 10 39 17 30 23 -9 5 -6 8
9 8 43 0 126 22 113 30 -8 5 -4 9 12 13 12 3 64 18 113 33 l90 27 545 4 c300
2 600 7 668 12 67 5 138 5 156 1 51 -11 1459 -11 1466 0 4 7 44 6 112 -1 58
-5 163 -8 234 -5 71 3 165 4 209 3 98 -2 139 -2 690 1 603 4 1149 4 1335 2
614 -9 1474 -14 1565 -10 61 3 416 3 790 0 913 -7 1478 -3 1470 11 -5 6 3 7
22 2 22 -6 855 -8 2027 -4 55 1 102 -3 105 -7 4 -4 42 -7 86 -7 85 -1 243 -13
285 -22 56 -12 103 -15 109 -6 4 6 46 4 111 -4 58 -8 146 -16 195 -19 50 -2
131 -8 182 -14 51 -5 124 -10 162 -10 38 0 71 -4 73 -9 3 -9 208 -42 255 -42
12 1 25 -4 28 -9 4 -6 10 -8 14 -6 12 8 115 -22 186 -54 37 -17 72 -30 79 -30
6 0 41 -20 78 -45 37 -25 72 -45 77 -45 6 0 22 -11 37 -25 15 -14 33 -25 40
-25 8 0 14 -5 14 -10 0 -6 12 -15 26 -20 14 -6 22 -14 19 -20 -3 -5 1 -10 9
-10 9 0 16 -4 16 -10 0 -5 4 -10 10 -10 5 0 28 -18 52 -40 24 -22 46 -40 51
-40 4 0 7 -7 7 -15 0 -8 9 -20 20 -27 11 -7 20 -17 20 -23 1 -13 47 -65 58
-65 5 0 20 -21 33 -47 13 -25 31 -54 39 -64 34 -40 39 -49 46 -74 4 -15 13
-29 20 -32 8 -3 14 -14 14 -24 0 -10 11 -40 24 -66 14 -27 30 -68 37 -93 7
-25 16 -50 21 -56 5 -7 10 -27 12 -45 2 -19 6 -41 10 -49 5 -12 2 -410 -4
-475 -1 -11 -1 -128 0 -260 1 -132 -1 -248 -5 -257 -4 -10 -5 -25 -1 -33 12
-32 16 -2100 9 -4875 -2 -998 0 -1880 4 -1960 5 -80 5 -146 1 -148 -4 -2 -6
-58 -3 -125 12 -342 4 -3842 -10 -4290 -6 -189 -5 -227 6 -227 10 -1 9 -4 -3
-10 -15 -9 -15 -14 -2 -45 8 -19 14 -47 14 -62 -1 -47 -20 -63 -129 -105 -23
-8 -24 -9 -5 -22 10 -7 91 -30 179 -51 88 -21 179 -48 202 -60 38 -20 79 -62
135 -141 22 -32 51 -52 127 -90 40 -21 54 -22 158 -17 81 4 118 2 128 -7 8 -7
23 -9 32 -5 28 10 289 15 373 7 41 -4 106 -4 144 1 44 5 89 4 120 -3 33 -7 52
-7 54 -1 2 6 393 8 1110 5 609 -2 1458 -6 1888 -8 559 -2 786 -6 801 -15 42
-22 110 -6 142 33 7 9 17 14 21 11 4 -2 25 13 47 33 87 81 144 126 165 129 12
2 25 8 29 14 4 6 20 8 43 4 24 -5 36 -3 36 4 0 6 10 11 23 11 18 0 19 -2 7
-10 -11 -8 -7 -9 15 -4 16 4 35 7 42 7 7 0 10 4 7 9 -3 4 4 8 15 8 11 0 28 11
36 24 14 21 16 1540 16 15562 -1 8547 -3 15640 -6 15764 -3 124 -7 404 -10
624 -3 219 -10 421 -15 448 -10 50 -61 134 -73 121 -4 -3 -7 1 -7 10 0 9 -15
22 -32 30 -69 30 -90 37 -106 37 -9 0 -35 14 -56 30 -22 17 -48 30 -58 30 -10
0 -21 7 -24 15 -4 8 -12 15 -18 15 -7 0 -22 11 -35 24 -12 12 -41 29 -64 36
-23 8 -48 18 -55 23 -7 6 -46 7 -95 3 -137 -13 -335 -16 -1206 -22 -866 -6
-1301 -6 -1361 1 -39 4 -1539 4 -1840 0 -107 -2 -206 -5 -220 -8 -121 -27
-170 -40 -170 -47 0 -4 -17 -10 -39 -14 -21 -3 -44 -13 -51 -21 -7 -8 -18 -15
-25 -15 -7 0 -37 -25 -66 -55 -52 -54 -58 -56 -165 -84 -142 -38 -178 -57
-182 -99 -2 -18 1 -32 6 -32 13 0 12 45 17 -710 3 -366 5 -669 5 -675 1 -5 -1
-282 -4 -615 -3 -333 -8 -1271 -11 -2085 -3 -814 -9 -1624 -12 -1800 -5 -248
-3 -326 7 -344 9 -19 9 -25 0 -31 -9 -6 -11 -41 -6 -141 5 -123 18 -1517 16
-1894 -1 -523 -11 -1405 -15 -1417 -8 -25 -10 -418 -1 -418 4 0 5 -21 1 -47
-11 -66 -7 -237 5 -241 12 -4 14 -82 3 -82 -5 0 -8 -129 -9 -287 -1 -346 -9
-525 -23 -552 -6 -11 -11 -27 -11 -36 0 -36 -126 -291 -162 -329 -15 -17 -28
-36 -28 -43 0 -7 -4 -13 -9 -13 -5 0 -26 -27 -46 -60 -20 -33 -41 -60 -46 -60
-5 0 -9 -4 -9 -9 0 -15 -121 -132 -131 -126 -5 3 -6 -1 -3 -9 4 -11 0 -16 -10
-16 -9 0 -19 -7 -23 -16 -3 -8 -17 -20 -31 -25 -14 -5 -22 -12 -19 -16 4 -3
-10 -15 -31 -25 -20 -11 -66 -39 -102 -62 -86 -57 -105 -66 -130 -66 -12 0
-19 -4 -16 -9 3 -5 -7 -11 -22 -14 -15 -3 -65 -19 -112 -35 -56 -20 -124 -34
-200 -42 -63 -7 -125 -16 -136 -22 -16 -7 -33 -6 -59 3 -30 11 -39 11 -42 2
-3 -8 -23 -13 -54 -13 -27 0 -49 -4 -49 -9 0 -8 -124 -20 -280 -27 -47 -2 -86
-8 -88 -14 -5 -13 -29 -13 -34 0 -2 8 -19 8 -53 1 -28 -6 -104 -13 -170 -16
-66 -2 -165 -9 -220 -15 -150 -16 -1229 -20 -5535 -23 -2161 -1 -3911 -6
-3919 -11 -8 -5 -16 -4 -21 5 -7 10 -11 10 -24 0 -12 -10 -19 -11 -30 -2 -8 7
-50 11 -102 11 -442 -3 -1770 11 -1854 20 -58 6 -116 12 -130 13 -14 1 -28 6
-31 10 -4 5 -35 15 -70 23 -35 8 -71 16 -79 19 -8 2 -19 4 -24 4 -5 1 -6 4 -2
8 3 4 -6 12 -21 18 -17 7 -30 8 -34 2 -6 -8 -47 7 -59 22 -3 4 -23 12 -45 19
-23 6 -50 20 -60 29 -21 19 -89 53 -105 53 -6 0 -31 16 -57 36 -27 21 -63 43
-80 51 -18 7 -33 18 -33 23 0 6 -6 13 -14 16 -26 10 -104 89 -111 112 -4 13
-21 32 -38 43 -18 10 -25 19 -17 19 12 1 12 3 -2 14 -10 7 -18 18 -18 24 0 6
-8 17 -18 24 -9 7 -23 25 -29 41 -7 15 -17 27 -23 27 -5 0 -10 9 -10 20 0 11
-7 23 -16 27 -8 3 -13 12 -10 19 3 7 -7 28 -22 45 -14 18 -28 41 -29 53 -2 11
-8 23 -13 26 -14 9 -71 182 -66 197 3 7 -2 19 -10 28 -8 8 -13 19 -10 23 3 5
-4 27 -15 48 -18 35 -20 51 -14 148 3 60 9 114 12 119 9 14 14 456 14 1257 0
439 4 657 11 661 7 4 7 13 -1 27 -14 27 -14 65 0 79 6 6 8 17 3 24 -4 7 -8 36
-9 64 -1 39 -2 926 -1 1125 0 25 -1 174 -3 333 -1 158 1 291 4 297 3 5 1 19
-5 30 -6 11 -7 20 -3 20 4 0 8 882 8 1961 0 1078 3 1950 7 1937 5 -15 6 -13 2
7 -3 17 -8 499 -10 1073 -2 574 -5 1046 -7 1050 -2 4 -5 138 -6 297 -2 300 -6
423 -17 561 -5 70 -3 87 16 128 27 60 21 86 -28 136 -40 40 -148 130 -157 130
-8 0 -65 66 -95 109 -14 20 -32 42 -40 49 -13 12 -13 13 0 6 9 -4 12 -3 7 2
-5 5 -12 9 -15 9 -4 0 -12 3 -18 7 -6 4 -68 2 -138 -3 -70 -6 -144 -8 -164 -4
-20 4 -71 9 -112 11 -41 2 -101 5 -132 8 -32 3 -165 8 -295 12 -236 6 -286 9
-373 19 -67 7 -175 13 -360 20 -91 3 -174 8 -186 10 -12 3 -24 2 -27 -2z
m-4064 -8394 c-8 -29 -13 -23 -13 14 0 22 3 28 9 18 5 -7 6 -22 4 -32z m4
-921 c-3 -8 -6 -5 -6 6 -1 11 2 17 5 13 3 -3 4 -12 1 -19z m-10 -360 c-2 -13
-4 -3 -4 22 0 25 2 35 4 23 2 -13 2 -33 0 -45z m0 -10130 c-3 -7 -5 -2 -5 12
0 14 2 19 5 13 2 -7 2 -19 0 -25z m21360 -870 c-3 -8 -6 -5 -6 6 -1 11 2 17 5
13 3 -3 4 -12 1 -19z m-21370 -3170 c-3 -8 -6 -5 -6 6 -1 11 2 17 5 13 3 -3 4
-12 1 -19z m10 -8070 c-2 -13 -4 -3 -4 22 0 25 2 35 4 23 2 -13 2 -33 0 -45z"/>
<path d="M30061 40034 c0 -11 3 -14 6 -6 3 7 2 16 -1 19 -3 4 -6 -2 -5 -13z"/>
<path d="M26808 8333 c7 -3 16 -2 19 1 4 3 -2 6 -13 5 -11 0 -14 -3 -6 -6z"/>
<path d="M51180 10 c0 -5 5 -10 10 -10 6 0 10 5 10 10 0 6 -4 10 -10 10 -5 0
-10 -4 -10 -10z"/>
</g>
</svg>
